<?xml version="1.0" encoding="iso-8859-1"?><!DOCTYPE svg PUBLIC "-//W3C//DTD SVG 1.1//EN" "http://www.w3.org/Graphics/SVG/1.1/DTD/svg11.dtd"><svg xmlns="http://www.w3.org/2000/svg" xmlns:xlink="http://www.w3.org/1999/xlink"><symbol viewBox="0 0 480.17 480.17" id="collaboration" xmlns="http://www.w3.org/2000/svg"><path d="M344.064 359.853a8 8 0 0 0-8 8v96.232h-320v-352h88a8 8 0 0 0 8-8v-88h224v95.816a8 8 0 0 0 16 0V8.085a8 8 0 0 0-8-8h-240c-.152 0-.288.08-.44.088a7.778 7.778 0 0 0-2.176.432c-.232.08-.448.144-.672.24a7.995 7.995 0 0 0-2.4 1.6l-96 96a7.87 7.87 0 0 0-1.6 2.344c-.112.248-.176.496-.264.752a7.557 7.557 0 0 0-.408 2.056c0 .176-.104.328-.104.504v367.984a8 8 0 0 0 8 8h336.064a8 8 0 0 0 8-8V367.853a8 8 0 0 0-8-8zm-248-332.456v68.688H27.376l68.688-68.688z"/><path d="M460.036 201.005a48.002 48.002 0 0 0-27.972-8.92c-9.96 0-19.671 3.12-27.768 8.92l-97.2-97.2c15.42-21.667 10.355-51.732-11.312-67.151s-51.732-10.355-67.151 11.312-10.355 51.732 11.312 67.151c16.713 11.894 39.126 11.894 55.839 0l97.2 97.2c-11.894 16.602-11.894 38.934 0 55.536l-97.2 97.2c-21.667-15.42-51.732-10.355-67.151 11.312-15.42 21.667-10.355 51.732 11.312 67.151 21.667 15.42 51.732 10.355 67.151-11.312 11.894-16.713 11.894-39.126 0-55.839l97.2-97.2c21.583 15.392 51.558 10.373 66.95-11.21 15.393-21.583 10.374-51.558-11.21-66.95zm-192.02-92.968c-17.673 0-32-14.327-32-32 0-17.673 14.327-32 32-32 17.673 0 32 14.327 32 32 0 17.673-14.327 32-32 32zm0 328.096c-17.673 0-32-14.327-32-32 0-17.673 14.327-32 32-32 17.673 0 32 14.327 32 32 0 17.673-14.327 32-32 32zm164.048-164.048c-17.673 0-32-14.327-32-32s14.327-32 32-32c17.673 0 32 14.327 32 32s-14.327 32-32 32z"/><circle cx="432.064" cy="240.085" r="16"/><path d="M256.701 64.722c-6.249 6.247-6.251 16.378-.003 22.627s16.378 6.251 22.627.003l.003-.003c6.246-6.248 6.246-16.376 0-22.624-6.247-6.249-16.378-6.251-22.627-.003zM256.688 392.821h.008c-6.247 6.25-6.246 16.381.004 22.628s16.381 6.246 22.628-.004c6.247-6.252 6.244-16.385-.008-22.632s-16.385-6.244-22.632.008zM240.064 232.085h16v16h-16zM216.064 232.085h16v16h-16zM264.064 232.085h16v16h-16zM288.064 232.085h16v16h-16zM312.064 232.085h16v16h-16zM336.064 232.085h16v16h-16zM360.064 232.085h16v16h-16zM80.064 240.085c.069-37.619 20.4-72.283 53.2-90.704a8.002 8.002 0 0 0 3.056-10.896 8.002 8.002 0 0 0-10.896-3.056c-57.8 32.344-78.436 105.421-46.091 163.221a119.935 119.935 0 0 0 46.091 46.091 8.002 8.002 0 0 0 10.896-3.056 8.002 8.002 0 0 0-3.056-10.896c-32.8-18.421-53.131-53.085-53.2-90.704z"/><path d="M145.336 318.085a8 8 0 0 0 3.896-14.992c-34.798-19.243-47.409-63.052-28.166-97.85a72 72 0 0 1 28.166-28.166 8 8 0 1 0-7.776-13.984c-42.522 23.537-57.912 77.088-34.375 119.609a88 88 0 0 0 34.375 34.375 7.996 7.996 0 0 0 3.88 1.008z"/><path d="M161.336 290.405a8 8 0 0 0 3.824-15.033c-19.489-10.477-26.795-34.769-16.317-54.258a40.072 40.072 0 0 1 16.317-16.318 8 8 0 0 0 3.216-10.848 8 8 0 0 0-10.848-3.216c-27.256 14.691-37.443 48.695-22.752 75.952a56.065 56.065 0 0 0 22.752 22.752 7.99 7.99 0 0 0 3.808.969z"/><path d="M208.064 240.085c0-13.255-10.745-24-24-24s-24 10.745-24 24 10.745 24 24 24 24-10.745 24-24zm-32 0a8 8 0 1 1 16 0 8 8 0 0 1-16 0z"/></symbol><symbol viewBox="0 0 508 508" id="contract" xmlns="http://www.w3.org/2000/svg"><path d="M49.2 213h278.6v16.4H49.2zM49.2 286.8h262.2v16.4H49.2zM49.2 360.5H254v16.4H49.2zM114.7 434.3h16.4v16.4h-16.4zM81.9 434.3h16.4v16.4H81.9zM49.2 434.3h16.4v16.4H49.2zM49.2 41v131.1h114.7V41H49.2zm98.3 114.7H65.6V57.4h81.9v98.3z"/><path d="M500.8 227l-23.2-23.2c-9.6-9.6-25.2-9.6-34.8 0l-66 66V119.5L257.4 0H0v508h376.9V385.7l123.9-123.9c9.6-9.6 9.6-25.2 0-34.8zM262.2 28l86.7 86.7h-86.7V28zm98.3 463.6H16.4V16.4h229.4v114.7h114.7v155.1L244.1 402.6 229.6 475l72.4-14.5 58.5-58.5v89.6zm-103.8-68.4l24.7 24.7-30.9 6.2 6.2-30.9zm41.3 18.2l-34.8-34.8L413.9 256l34.8 34.8L298 441.4zm162.3-162.2l-34.8-34.8 11.6-11.6 34.8 34.8-11.6 11.6zm28.9-29l-5.8 5.8-34.8-34.8 5.8-5.8c3.2-3.2 8.4-3.2 11.6 0l23.2 23.2c3.2 3.2 3.2 8.4 0 11.6z"/><path d="M292.207 400.852L408.1 284.96l11.596 11.596-115.892 115.892z"/></symbol><symbol viewBox="0 0 49.652 49.652" id="facebook" xmlns="http://www.w3.org/2000/svg"><path d="M24.826 0C11.137 0 0 11.137 0 24.826c0 13.688 11.137 24.826 24.826 24.826 13.688 0 24.826-11.138 24.826-24.826C49.652 11.137 38.516 0 24.826 0zM31 25.7h-4.039v14.396h-5.985V25.7h-2.845v-5.088h2.845v-3.291c0-2.357 1.12-6.04 6.04-6.04l4.435.017v4.939h-3.219c-.524 0-1.269.262-1.269 1.386v2.99h4.56L31 25.7z"/></symbol><symbol viewBox="0 0 291.32 291.32" id="google" xmlns="http://www.w3.org/2000/svg"><path d="M145.66 0c80.113 0 145.66 65.547 145.66 145.66s-65.547 145.66-145.66 145.66S0 225.772 0 145.66 65.547 0 145.66 0z"/><g fill="#fff"><path d="M219.4 121.079v16.387h16.386v16.387H219.4v16.387h-16.387v-16.387h-16.387v-16.387h16.387v-16.387zM71.919 186.626c-21.849-21.849-21.849-60.085.91-81.933 16.387-16.387 40.056-20.028 60.995-11.835l8.193 4.552 9.104 6.373-14.566 14.566-5.462-3.641c-12.745-8.193-30.953-6.373-42.787 5.462-13.656 13.656-14.566 38.236 0 52.802 13.656 14.566 38.236 14.566 50.981 0 3.641-3.641 7.283-9.104 8.193-14.566v-1.821h-32.773v-18.207h51.891l.91 4.552v12.745c-.91 11.835-5.462 23.67-13.656 31.863-21.848 20.937-60.084 20.937-81.933-.912z"/></g></symbol><symbol viewBox="0 0 480 480" id="integration" xmlns="http://www.w3.org/2000/svg"><path d="M56 200h368v71.528h16V184H40v88h16zM424 288h16v16h-16zM40 288h16v16H40zM112 152a8 8 0 0 0 8-8v-17.224l27.8-4.672a8 8 0 0 0 6.48-6.104 86.136 86.136 0 0 1 10.976-26.552 8 8 0 0 0-.264-8.904l-16.376-22.88 13.048-13.048 22.88 16.376a8 8 0 0 0 8.904.264 86.136 86.136 0 0 1 26.576-10.976 8 8 0 0 0 6.112-6.48l4.64-27.8h18.448l4.664 27.8A8 8 0 0 0 260 50.28a86.136 86.136 0 0 1 26.552 10.976 8 8 0 0 0 8.904-.264l22.88-16.376 13.048 13.048-16.376 22.88a8 8 0 0 0-.264 8.904 86.136 86.136 0 0 1 10.976 26.576 8 8 0 0 0 6.48 6.104l27.8 4.648V144a8 8 0 0 0 16 0v-24a8 8 0 0 0-6.656-7.896L340 107.2a101.672 101.672 0 0 0-8.944-21.6l17.312-24.168a8 8 0 0 0-.848-10.312l-22.64-22.64a8 8 0 0 0-10.312-.848L290.4 44.92A101.687 101.687 0 0 0 268.8 36l-4.912-29.32A8 8 0 0 0 256 0h-32a8 8 0 0 0-7.896 6.656L211.2 36a101.672 101.672 0 0 0-21.6 8.944l-24.144-17.288a8 8 0 0 0-10.312.848l-22.64 22.64a8 8 0 0 0-.848 10.312L148.92 85.6a101.687 101.687 0 0 0-8.92 21.6l-29.32 4.912A8 8 0 0 0 104 120v24a8 8 0 0 0 8 8z"/><path d="M288 136a8 8 0 0 0 16 0c0-35.346-28.654-64-64-64-35.346 0-64 28.654-64 64a8 8 0 0 0 16 0c0-26.51 21.49-48 48-48s48 21.49 48 48z"/><path d="M208 136a8 8 0 0 0 16 0c0-8.837 7.163-16 16-16s16 7.163 16 16a8 8 0 0 0 16 0c0-17.673-14.327-32-32-32-17.673 0-32 14.327-32 32zM472 416h-8V168a8 8 0 0 0-8-8H24a8 8 0 0 0-8 8v248H8a8 8 0 0 0-8 8v16c.026 22.08 17.92 39.974 40 40h400c22.08-.026 39.974-17.92 40-40v-16a8 8 0 0 0-8-8zM32 176h416v240H304a8.075 8.075 0 0 0-3.056.616c-.972.4-1.855.987-2.6 1.728L284.688 432h-89.376l-13.656-13.656a8.007 8.007 0 0 0-2.6-1.728A8.075 8.075 0 0 0 176 416H32V176zm432 264c0 13.255-10.745 24-24 24H40c-13.255 0-24-10.745-24-24v-8h156.688l13.656 13.656A8 8 0 0 0 192 448h96a8 8 0 0 0 5.656-2.344L307.312 432H464v8z"/><path d="M440 320h-16v72H56v-72H40v88h400z"/><path d="M72 376h336v-48H72v48zm16-32h304v16H88v-16zM72 288h16v32H72zM104 272h16v48h-16zM136 256h16v64h-16zM168 288h16v32h-16zM200 256h16v64h-16zM392 224h16v96h-16zM360 240h16v80h-16zM328 272h16v48h-16zM296 256h16v64h-16zM264 240h16v80h-16zM232 272h16v48h-16z"/></symbol><symbol viewBox="0 0 512.001 512.001" id="legal" xmlns="http://www.w3.org/2000/svg"><path d="M138.308 31.986v100.27c0 10.848-8.794 19.642-19.642 19.642H18.398" fill="#cee8fa"/><g fill="#2d527c"><path d="M118.668 166.16H18.396c-7.877 0-14.262-6.387-14.262-14.262 0-7.875 6.385-14.262 14.262-14.262h100.27a5.383 5.383 0 0 0 5.378-5.378V31.986c0-7.875 6.385-14.262 14.262-14.262 7.877 0 14.262 6.387 14.262 14.262v100.27c.002 18.694-15.207 33.904-33.9 33.904z"/><path d="M251.487 416.996H63.19c-34.843 0-63.19-28.347-63.19-63.19V161.58c0-10.94 4.26-21.226 11.996-28.962L116.269 28.344c7.736-7.737 18.021-11.997 28.962-11.997h154.54c34.843 0 63.19 28.347 63.19 63.192v260.485c0 7.875-6.385 14.262-14.262 14.262s-14.262-6.387-14.262-14.262V79.537c0-19.115-15.551-34.668-34.667-34.668H145.23a12.345 12.345 0 0 0-8.791 3.643L32.166 152.788a12.355 12.355 0 0 0-3.643 8.792v192.226c0 19.115 15.551 34.668 34.667 34.668h188.296c7.877 0 14.262 6.387 14.262 14.262s-6.384 14.26-14.261 14.26z"/><path d="M348.701 416.303c-7.877 0-14.262-6.387-14.262-14.262v-219.13c0-7.875 6.385-14.262 14.262-14.262 7.877 0 14.262 6.387 14.262 14.262v219.131c0 7.876-6.386 14.261-14.262 14.261zM292.839 492.8H63.19C28.347 492.8 0 464.453 0 429.61V253.894c0-7.875 6.385-14.262 14.262-14.262s14.262 6.387 14.262 14.262V429.61c0 19.114 15.551 34.667 34.667 34.667h229.647c7.877 0 14.262 6.387 14.262 14.262s-6.384 14.261-14.261 14.261z"/><path d="M133.716 345.695c-4.738 0-9.372-2.359-12.083-6.665-4.196-6.666-2.196-15.471 4.47-19.667l15.267-9.613a49.78 49.78 0 0 1 45.981-3.687l14.74 6.265a21.34 21.34 0 0 0 16.796-.077l13.529-5.897a49.726 49.726 0 0 1 46.4 3.507l15.092 9.5c6.665 4.197 8.667 13.003 4.47 19.669s-13.003 8.663-19.669 4.471L263.617 334a21.225 21.225 0 0 0-19.804-1.497l-13.53 5.897c-12.482 5.439-26.822 5.504-39.35.18l-14.738-6.265a21.255 21.255 0 0 0-19.627 1.575L141.3 343.5a14.188 14.188 0 0 1-7.584 2.195z"/></g><path d="M497.655 422.966c-1.652-10.561-18.84-43.84-20.968-52.408h-42.75c-1.964 8.469-19.199 41.571-20.959 52.28-.318 1.938.167 3.926 1.324 5.421 5.944 7.687 24.743 28.223 33.276 47.773 1.416 3.243 4.588 5.358 8.126 5.358 3.411 0 6.538-1.95 7.984-5.039 9.24-19.737 27.159-40.494 32.74-48.146 1.072-1.468 1.518-3.374 1.227-5.239z" fill="#cee8fa"/><path d="M455.705 495.654c-9.186 0-17.507-5.461-21.198-13.913-6.11-13.998-18.919-29.468-26.571-38.713-1.954-2.359-3.641-4.398-4.916-6.046-3.571-4.612-5.073-10.612-4.115-16.455 1.204-7.316 6.031-18.414 13.259-34.51 3.059-6.81 7.248-16.137 7.884-18.697a14.242 14.242 0 0 1 13.89-11.023h42.75a14.26 14.26 0 0 1 13.841 10.825c.633 2.496 4.751 11.692 7.756 18.408 7.382 16.491 12.307 27.852 13.46 35.236.87 5.574-.513 11.351-3.798 15.851-1.299 1.781-3.002 3.952-5.159 6.699-7.309 9.313-19.545 24.904-26.184 39.083-3.77 8.052-11.974 13.255-20.899 13.255zm-27.879-73.334c.636.776 1.338 1.622 2.079 2.519 7.034 8.494 17.937 21.663 25.903 35.837 7.87-13.727 17.997-26.631 24.542-34.972.907-1.157 1.756-2.238 2.504-3.202-1.955-6-7.237-17.798-10.604-25.319-2.199-4.91-4.006-8.966-5.448-12.364h-22.933c-1.495 3.533-3.382 7.756-5.685 12.884-3.264 7.272-8.367 18.636-10.358 24.617z" fill="#2d527c"/><path d="M496.493 134.895v-66.88H414.13v248.937c0 1.399.107 2.775.294 4.132h81.777c.187-1.356.294-2.733.294-4.132V134.895h-.002z" fill="#cee8fa"/><g fill="#2d527c"><path d="M496.201 335.345h-81.777a14.26 14.26 0 0 1-14.129-12.327 44.886 44.886 0 0 1-.425-6.067V68.015c0-7.875 6.385-14.262 14.262-14.262h82.363c7.877 0 14.262 6.387 14.262 14.262v248.938c0 1.975-.144 4.018-.426 6.076a14.263 14.263 0 0 1-14.13 12.316zm-67.807-28.524h53.839V82.277h-53.839v224.544z"/><path d="M479.558 62.237h-48.491c-7.877 0-14.262-6.387-14.262-14.262s6.385-14.262 14.262-14.262h48.491c7.877 0 14.262 6.387 14.262 14.262s-6.386 14.262-14.262 14.262z"/></g></symbol><symbol viewBox="0 0 49.652 49.652" id="linkedin" xmlns="http://www.w3.org/2000/svg"><path d="M29.35 21.298c-2.125 0-3.074 1.168-3.605 1.988v-1.704h-4.002c.052 1.128 0 12.041 0 12.041h4.002v-6.727c0-.359.023-.72.131-.977.29-.72.948-1.465 2.054-1.465 1.448 0 2.027 1.104 2.027 2.724v6.442h4.003v-6.905c-.002-3.696-1.977-5.417-4.61-5.417zm-3.608 2.03h-.025c.008-.014.02-.027.025-.041v.041zM15.523 21.582h4.002v12.041h-4.002z"/><path d="M24.826 0C11.137 0 0 11.137 0 24.826c0 13.688 11.137 24.826 24.826 24.826 13.688 0 24.826-11.138 24.826-24.826C49.652 11.137 38.516 0 24.826 0zm13.165 36.055c0 1.056-.876 1.91-1.959 1.91H13.451c-1.08 0-1.957-.854-1.957-1.91V13.211c0-1.055.877-1.91 1.957-1.91h22.581c1.082 0 1.959.856 1.959 1.91v22.844z"/><path d="M17.551 15.777c-1.368 0-2.264.898-2.264 2.08 0 1.155.869 2.08 2.211 2.08h.026c1.396 0 2.265-.925 2.265-2.08-.027-1.181-.868-2.08-2.238-2.08z"/></symbol><symbol viewBox="0 0 384.992 384.992" id="logo" xmlns="http://www.w3.org/2000/svg"><g fill="#cce4ff"><path d="M224.992 368.496l80-80v-16h-96v96zM144.992 200.496h160v-80h-232l-48 40 48 40z"/></g><g fill="#007aff"><path d="M320.992.496h-320v88h32v-56h256v72H67.2l-67.2 56 67.2 56H384.992v-112h-64v-104zm-32 184H78.784l-28.8-24 28.8-24h210.208v48zm64-48v48h-32v-48h32zM.992 232.496v152h230.632l89.368-89.368v-38.632h-128v96h-160v-120h-32zm224 56h57.368l-57.368 57.368v-57.368z"/></g></symbol><symbol viewBox="0 0 53 53" id="menu" xmlns="http://www.w3.org/2000/svg"><path d="M2 13.5h49a2 2 0 0 0 0-4H2a2 2 0 0 0 0 4zM2 28.5h49a2 2 0 0 0 0-4H2a2 2 0 0 0 0 4zM2 43.5h49a2 2 0 0 0 0-4H2a2 2 0 0 0 0 4z"/></symbol><symbol viewBox="0 0 512 512" id="procurement" xmlns="http://www.w3.org/2000/svg"><path fill="#cee8fa" d="M151.147 397.125H443.44l26.842-152.006H124.305z"/><path d="M499.176 138.692a15.476 15.476 0 0 0-11.856-5.53h-76.096c-8.546 0-15.476 6.929-15.476 15.476s6.93 15.476 15.476 15.476h57.647l-11.572 65.527H137.287l-11.572-65.527h58.367c8.547 0 15.476-6.929 15.476-15.476s-6.929-15.476-15.476-15.476h-64.288l-18.27-97.023a15.475 15.475 0 0 0-15.208-12.611H24.679c-8.547 0-15.476 6.929-15.476 15.476S16.132 54.48 24.679 54.48h48.802l62.425 345.336a15.477 15.477 0 0 0 15.241 12.785h64.313c18.87 0 34.224 15.352 34.224 34.222s-15.352 34.224-34.224 34.224-34.222-15.352-34.222-34.224c0-8.547-6.929-15.476-15.476-15.476s-15.476 6.929-15.476 15.476c0 35.939 29.238 65.176 65.175 65.176 35.939 0 65.176-29.237 65.176-65.176a64.767 64.767 0 0 0-9.739-34.222h108.707c18.87 0 34.222 15.352 34.222 34.222s-15.352 34.224-34.222 34.224-34.222-15.352-34.222-34.224c0-8.547-6.93-15.476-15.476-15.476s-15.476 6.929-15.476 15.476c0 35.939 29.237 65.176 65.175 65.176s65.175-29.237 65.175-65.176a64.767 64.767 0 0 0-9.739-34.222h8.402c7.509 0 13.935-5.39 15.241-12.785l26.842-152.007 17.038-96.478a15.5 15.5 0 0 0-3.389-12.639zm-68.717 242.957H164.13l-21.377-121.054h309.08l-21.374 121.054z" fill="#2d527c"/><path fill="#cee8fa" d="M332.661 84.43V15.476h-70.734V84.43h-34.886l70.252 89.212 70.254-89.212z"/><path d="M297.295 189.118a15.473 15.473 0 0 1-12.158-5.901l-70.254-89.214a15.476 15.476 0 0 1 12.158-25.05h19.409V15.476C246.449 6.929 253.378 0 261.925 0h70.735c8.546 0 15.476 6.929 15.476 15.476v53.478h19.41a15.475 15.475 0 0 1 12.158 25.05l-70.254 89.214a15.468 15.468 0 0 1-12.155 5.9zm-38.367-89.212l38.367 48.722 38.367-48.722h-2.999c-8.546 0-15.476-6.929-15.476-15.476V30.952h-39.783V84.43c0 8.547-6.93 15.476-15.476 15.476h-3z" fill="#2d527c"/></symbol><symbol viewBox="0 0 512 512" id="sales" xmlns="http://www.w3.org/2000/svg"><g fill="#2d527c"><path d="M347.427 512H82.048c-8.335 0-15.092-6.758-15.092-15.092s6.757-15.092 15.092-15.092h265.379c8.335 0 15.092 6.758 15.092 15.092S355.762 512 347.427 512z"/><path d="M467.975 512H436.39c-8.335 0-15.092-6.758-15.092-15.092s6.757-15.092 15.092-15.092h31.583c7.632 0 13.841-6.209 13.841-13.841v-9.087c0-7.634-6.209-13.843-13.841-13.843H82.048c-8.335 0-15.092-6.758-15.092-15.092s6.757-15.092 15.092-15.092h385.926c24.276 0 44.025 19.751 44.025 44.027v9.087C512.001 492.25 492.251 512 467.975 512z"/><path d="M82.048 508.71c-8.335 0-15.092-6.758-15.092-15.092V44.025c0-7.632-6.209-13.841-13.841-13.841h-9.087c-7.634 0-13.843 6.21-13.843 13.841v372.699c0 8.334-6.757 15.092-15.092 15.092S.001 425.058.001 416.724V44.025C.001 19.75 19.75 0 44.026 0h9.087c24.276 0 44.025 19.75 44.025 44.025v449.591c.002 8.336-6.755 15.094-15.09 15.094z"/></g><path d="M236.421 151.456l35.331 35.331-189.511 189.51-.193 53.81h62.972l185.025-185.025 35.331 35.331c2.339 2.339 6.345.986 6.785-2.294l20.009-148.964c.352-2.612-1.879-4.843-4.491-4.491l-148.964 20.009c-3.28.438-4.633 4.444-2.294 6.783z" fill="#cee8fa"/><g fill="#2d527c"><path d="M145.02 445.198H82.048c-4.011 0-7.86-1.598-10.691-4.439a15.106 15.106 0 0 1-4.401-10.708l.193-53.808a15.098 15.098 0 0 1 4.42-10.617l178.839-178.838-24.659-24.659c-5.169-5.171-6.926-12.682-4.587-19.608 2.339-6.926 8.296-11.834 15.54-12.807l148.966-20.009c6.319-.848 12.724 1.568 16.909 6.354a19.08 19.08 0 0 1 4.549 15.106l-20.009 148.964c-1.269 9.437-9.411 16.552-18.941 16.552-5.082 0-9.867-1.986-13.476-5.595l-24.658-24.659-174.351 174.35a15.091 15.091 0 0 1-10.671 4.421zm-47.826-30.185h41.573l180.605-180.605a15.093 15.093 0 0 1 21.344 0l19.472 19.472 15.088-112.326-112.326 15.088 19.472 19.472c5.893 5.893 5.893 15.45 0 21.345L97.312 382.571l-.118 32.442zM204.344 109.605H85.066c-8.335 0-15.092-6.758-15.092-15.092s6.757-15.092 15.092-15.092h119.278c8.335 0 15.092 6.758 15.092 15.092s-6.757 15.092-15.092 15.092zM418.995 442.179c-8.335 0-15.092-6.758-15.092-15.092V317c0-8.334 6.757-15.092 15.092-15.092s15.092 6.758 15.092 15.092v110.087c0 8.334-6.758 15.092-15.092 15.092z"/></g></symbol><symbol viewBox="0 0 486.392 486.392" id="twitter" xmlns="http://www.w3.org/2000/svg"><path d="M243.196 0C108.891 0 0 108.891 0 243.196s108.891 243.196 243.196 243.196 243.196-108.891 243.196-243.196C486.392 108.861 377.501 0 243.196 0zm120.99 188.598l.182 7.752c0 79.16-60.221 170.359-170.359 170.359-33.804 0-65.268-9.91-91.776-26.904 4.682.547 9.454.851 14.288.851 28.059 0 53.868-9.576 74.357-25.627-26.204-.486-48.305-17.814-55.935-41.586 3.678.699 7.387 1.034 11.278 1.034 5.472 0 10.761-.699 15.777-2.067-27.39-5.533-48.031-29.7-48.031-58.701v-.76c8.086 4.499 17.297 7.174 27.116 7.509-16.051-10.731-26.63-29.062-26.63-49.825 0-10.974 2.949-21.249 8.086-30.095 29.518 36.236 73.658 60.069 123.422 62.562-1.034-4.378-1.55-8.968-1.55-13.649 0-33.044 26.812-59.857 59.887-59.857 17.206 0 32.771 7.265 43.714 18.908a121.25 121.25 0 0 0 38.03-14.531c-4.469 13.984-13.953 25.718-26.326 33.135a120.032 120.032 0 0 0 34.382-9.424c-8.025 11.977-18.209 22.526-29.912 30.916z"/></symbol></svg>